<!DOCTYPE svg PUBLIC "-//W3C//DTD SVG 1.1//EN" "http://www.w3.org/Graphics/SVG/1.1/DTD/svg11.dtd">
<svg xmlns="http://www.w3.org/2000/svg" xmlns:xlink="http://www.w3.org/1999/xlink" xmlns:serif="http://www.serif.com/" width="100%" height="100%" viewBox="0 0 893 610" version="1.1" xml:space="preserve" style="fill-rule:evenodd;clip-rule:evenodd;">
    <g transform="matrix(1,0,0,1,-767.344,0)">
        <g id="Artboard1" transform="matrix(4.28142,0,0,2.38407,-1728.02,-566.044)">
            <rect x="582.835" y="237.428" width="208.552" height="255.863" style="fill:none;"/>
            <g>
                <g transform="matrix(-0.278883,0.518301,-0.288611,-0.50083,697.759,388.37)">
                    <path d="M-18.881,44.5l123.762,0" style="fill:none;stroke:#333;stroke-width:5px;"/>
                </g>
                <g transform="matrix(0.306049,0.469336,-0.259626,0.553257,669.708,351.647)">
                    <path d="M-13.855,37.75l116.71,0" style="fill:none;stroke:#333;stroke-width:3.99px;"/>
                </g>
            </g>
            <g>
                <g>
                    <g transform="matrix(-0.401018,0.0125706,0.00699319,0.719487,726.667,425.343)">
                        
                        <path d="M170.116,9.576c0,0 -6.137,17.235 -34.988,29.616c-28.851,12.38 -80.415,19.906 -135.128,-6.143c24.049,2.581 63.283,-2.111 63.283,-41.611" style="fill:none;stroke:#001aff;stroke-width:2px;stroke-linejoin:round;"/>
                    </g>
                    <g transform="matrix(0.534636,0,0,0.960124,536.349,170.13)">
                        <text x="364.302px" y="295.991px" style="font-family:'ArialMT', 'Arial', sans-serif;font-size:19.518px;">Consume</text>
                    </g>
                </g>
                <g>
                    <g transform="matrix(-0.348674,0.361517,0.201673,0.627304,741.533,374.062)">
                        
                        <path d="M132.591,-2.45c0,0 -63.443,70.115 -132.591,31.332c15.681,-4.826 39.268,-16.472 39.268,-55.972" style="fill:none;stroke:#001aff;stroke-width:6px;stroke-linejoin:round;"/>
                    </g>
                    <g transform="matrix(0.534636,0,0,0.960124,536.349,170.13)">
                        <text x="402.586px" y="239.69px" style="font-family:'ArialMT', 'Arial', sans-serif;font-size:30.778px;">Play</text>
                        
                        
                        
                    </g>
                </g>
                <g>
                    <g transform="matrix(0.401338,0,0,-0.720934,631.988,311.978)">
                        
                        <path d="M139,30.496c0,0 -62,27.5 -139,18c14,1.5 38.5,-16.5 38.5,-56" style="fill:none;stroke:#001aff;stroke-width:4px;stroke-linejoin:round;"/>
                    </g>
                    <g transform="matrix(0.534636,0,0,0.960124,536.349,170.13)">
                        
                        
                        
                        
                        <text x="172.987px" y="118.081px" style="font-family:'ArialMT', 'Arial', sans-serif;font-size:24.772px;text-anchor:end">Blast</text>
                    </g>
                </g>
                <g>
                    <g transform="matrix(0.402571,-0.0105923,0.00590894,0.724271,612.428,398.858)">
                        
                        <path xmlns="http://www.w3.org/2000/svg" d="M104.703,26.043c0,0 -37.164,27.723 -104.703,2.839c15.681,-4.826 49.823,-15.017 55.856,-53.825" style="fill:none;stroke:#f00;stroke-width:2.32px;stroke-linejoin:round;stroke-miterlimit:6;stroke-dasharray:6.96,6.96,0,0;stroke-dashoffset:11.59;"/>

                    </g>
                    <g transform="matrix(0.534636,0,0,0.960124,536.349,170.13)">
                        
                        
                        
                        <text x="138.609px" y="265.213px" style="font-family:'ArialMT', 'Arial', sans-serif;font-size:13.512px;text-anchor:end;">Sleep</text>
                    </g>
                </g>
            </g>
            <g transform="matrix(0.244375,0,0,0.438859,389.912,230.867)">
                <circle cx="1291.86" cy="225.59" r="122.333" style="fill:#fff;stroke:#fff;stroke-width:14.34px;stroke-linecap:round;stroke-linejoin:round;stroke-miterlimit:1.5;"/>
            </g>
            <g transform="matrix(0.184245,0,0,0.330875,409.029,279.073)">
                <circle cx="1291.86" cy="225.59" r="122.333" style="fill:#fff;stroke:#fff;stroke-width:19.02px;stroke-linecap:round;stroke-linejoin:round;stroke-miterlimit:1.5;"/>
            </g>
            <g transform="matrix(0.0880175,0,0,0.158066,541.633,386.406)">
                <circle cx="1291.86" cy="225.59" r="122.333" style="fill:#fff;stroke:#fff;stroke-width:39.8px;stroke-linecap:round;stroke-linejoin:round;stroke-miterlimit:1.5;"/>
            </g>
            <g transform="matrix(0.116943,0,0,0.210011,540.231,372.507)">
                <circle cx="1291.86" cy="225.59" r="122.333" style="fill:#fff;stroke:#fff;stroke-width:29.96px;stroke-linecap:round;stroke-linejoin:round;stroke-miterlimit:1.5;"/>
            </g>
            <g>
                <g transform="matrix(-0.162047,0,0,0.293497,824.414,306.105)">
                    <g transform="matrix(1.53074,0,0,1.5213,-1455.12,-584.526)">
                        <circle cx="1665.03" cy="490.162" r="90.681" style="fill:#fff;"/>
                    </g>
                    <g transform="matrix(0.816714,0,0,0.811675,732.162,-102.801)">
                        <circle cx="443.348" cy="325.201" r="169.961" style="fill:url(#_Radial5);"/>
                    </g>
                    <g transform="matrix(0.818367,0,0,0.811438,731.71,-102.765)">
                        <circle cx="443.348" cy="325.201" r="169.961" style="fill:url(#_Radial6);"/>
                    </g>
                    <g transform="matrix(-0.72394,-8.81101e-17,7.63955e-17,-0.619968,1415.06,337.366)">
                        <path d="M273.387,325.201c0,-93.804 339.922,-93.804 339.922,0c0,93.804 -76.157,169.961 -169.961,169.961c-93.804,0 -169.961,-76.157 -169.961,-169.961Z" style="fill:url(#_Radial7);"/>
                    </g>
                </g>
                <g transform="matrix(-0.214705,0,0,0.389169,809.76,267.152)">
                    <g transform="matrix(1.53485,0,0,1.5213,-2070.77,-584.526)">
                        <circle cx="1665.03" cy="490.162" r="90.681" style="fill:#fff;"/>
                    </g>
                    <g transform="matrix(0.816714,0,0,0.811675,123.184,-102.801)">
                        <circle cx="443.348" cy="325.201" r="169.961" style="fill:url(#_Radial8);"/>
                    </g>
                    <g transform="matrix(0.816714,0,0,0.811675,123.184,-102.801)">
                        <circle cx="443.348" cy="325.201" r="169.961" style="fill:url(#_Radial9);"/>
                    </g>
                    <g transform="matrix(-0.72394,-8.81101e-17,7.63955e-17,-0.619968,806.066,337.366)">
                        <path d="M273.387,325.201c0,-93.804 339.922,-93.804 339.922,0c0,93.804 -76.157,169.961 -169.961,169.961c-93.804,0 -169.961,-76.157 -169.961,-169.961Z" style="fill:url(#_Radial10);"/>
                    </g>
                </g>
                <g transform="matrix(-0.103047,0,0,0.186306,772.724,389.849)">
                    <g transform="matrix(1.53074,0,0,1.5213,-1759.11,-584.526)">
                        <circle cx="1665.03" cy="490.162" r="90.681" style="fill:#fff;"/>
                    </g>
                    <g transform="matrix(0.816714,0,0,0.811675,427.673,-102.801)">
                        <circle cx="443.348" cy="325.201" r="169.961" style="fill:url(#_Radial11);"/>
                    </g>
                    <g transform="matrix(0.816714,0,0,0.811675,427.673,-102.801)">
                        <circle cx="443.348" cy="325.201" r="169.961" style="fill:url(#_Radial12);"/>
                    </g>
                    <g transform="matrix(-0.72394,-8.81101e-17,7.63955e-17,-0.619968,1110.57,337.366)">
                        <path d="M273.387,325.201c0,-93.804 339.922,-93.804 339.922,0c0,93.804 -76.157,169.961 -169.961,169.961c-93.804,0 -169.961,-76.157 -169.961,-169.961Z" style="fill:url(#_Radial13);"/>
                    </g>
                </g>
                <g transform="matrix(-0.0776079,0,0,0.140237,669.337,399.338)">
                    <g transform="matrix(1.53485,0,0,1.5213,-2375.14,-584.526)">
                        <circle cx="1665.03" cy="490.162" r="90.681" style="fill:#fff;"/>
                    </g>
                    <g transform="matrix(0.816714,0,0,0.811675,-181.304,-102.801)">
                        <circle cx="443.348" cy="325.201" r="169.961" style="fill:url(#_Radial14);"/>
                    </g>
                    <g transform="matrix(0.816714,0,0,0.811675,-181.304,-102.801)">
                        <circle cx="443.348" cy="325.201" r="169.961" style="fill:url(#_Radial15);"/>
                    </g>
                    <g transform="matrix(-0.72394,-8.81101e-17,7.63955e-17,-0.619968,501.591,337.366)">
                        <path d="M273.387,325.201c0,-93.804 339.922,-93.804 339.922,0c0,93.804 -76.157,169.961 -169.961,169.961c-93.804,0 -169.961,-76.157 -169.961,-169.961Z" style="fill:url(#_Radial16);"/>
                    </g>
                </g>
            </g>
        </g>
    </g>
    <defs>
        <radialGradient id="_Radial5" cx="0" cy="0" r="1" gradientUnits="userSpaceOnUse" gradientTransform="matrix(-225.334,-1.5661,1.60967,-231.602,442.954,255.695)"><stop offset="0" style="stop-color:#0ff;stop-opacity:0"/><stop offset="0.44" style="stop-color:#0ac4ff;stop-opacity:0.8"/><stop offset="1" style="stop-color:#0db5ff;stop-opacity:1"/></radialGradient>
        <radialGradient id="_Radial6" cx="0" cy="0" r="1" gradientUnits="userSpaceOnUse" gradientTransform="matrix(-188.599,-0.238186,0.273574,-216.62,443.001,276.297)"><stop offset="0" style="stop-color:#0ff;stop-opacity:0"/><stop offset="0.6" style="stop-color:#00dce4;stop-opacity:0.172549"/><stop offset="0.81" style="stop-color:#008ba5;stop-opacity:0.576471"/><stop offset="1" style="stop-color:#003764;stop-opacity:1"/></radialGradient>
        <radialGradient id="_Radial7" cx="0" cy="0" r="1" gradientUnits="userSpaceOnUse" gradientTransform="matrix(-225.292,-4.60836,4.32553,-211.465,443.001,276.297)"><stop offset="0" style="stop-color:#0ff;stop-opacity:0"/><stop offset="0.6" style="stop-color:#25fffd;stop-opacity:0.180392"/><stop offset="0.81" style="stop-color:#78fffa;stop-opacity:0.588235"/><stop offset="1" style="stop-color:#ccfff6;stop-opacity:1"/></radialGradient>
        <radialGradient id="_Radial8" cx="0" cy="0" r="1" gradientUnits="userSpaceOnUse" gradientTransform="matrix(-225.334,-1.5661,1.60967,-231.602,443.001,276.297)"><stop offset="0" style="stop-color:#ffff18;stop-opacity:0"/><stop offset="1" style="stop-color:#e8ff00;stop-opacity:1"/></radialGradient>
        <radialGradient id="_Radial9" cx="0" cy="0" r="1" gradientUnits="userSpaceOnUse" gradientTransform="matrix(-188.599,-0.238186,0.273574,-216.62,443.001,276.297)"><stop offset="0" style="stop-color:#ffff18;stop-opacity:0"/><stop offset="0.73" style="stop-color:#ffc503;stop-opacity:1"/><stop offset="0.88" style="stop-color:#dfaa02;stop-opacity:1"/><stop offset="1" style="stop-color:#624000;stop-opacity:1"/></radialGradient>
        <radialGradient id="_Radial10" cx="0" cy="0" r="1" gradientUnits="userSpaceOnUse" gradientTransform="matrix(-225.292,-4.60836,4.32553,-211.465,443.001,276.297)"><stop offset="0" style="stop-color:#ffff18;stop-opacity:0"/><stop offset="0.6" style="stop-color:#fffe30;stop-opacity:0.180392"/><stop offset="0.81" style="stop-color:#fffc65;stop-opacity:0.588235"/><stop offset="1" style="stop-color:#fff99b;stop-opacity:1"/></radialGradient>
        <radialGradient id="_Radial11" cx="0" cy="0" r="1" gradientUnits="userSpaceOnUse" gradientTransform="matrix(-225.334,-1.5661,1.60967,-231.602,443.348,255.861)"><stop offset="0" style="stop-color:#ee009f;stop-opacity:0"/><stop offset="0.56" style="stop-color:#fa0661;stop-opacity:0.701961"/><stop offset="1" style="stop-color:#ff0847;stop-opacity:1"/></radialGradient>
        <radialGradient id="_Radial12" cx="0" cy="0" r="1" gradientUnits="userSpaceOnUse" gradientTransform="matrix(-188.599,-0.238186,0.273574,-216.62,443.001,276.297)"><stop offset="0" style="stop-color:#e60000;stop-opacity:0"/><stop offset="0.62" style="stop-color:#ce000b;stop-opacity:0.164706"/><stop offset="0.82" style="stop-color:#940025;stop-opacity:0.564706"/><stop offset="1" style="stop-color:#550041;stop-opacity:1"/></radialGradient>
        <radialGradient id="_Radial13" cx="0" cy="0" r="1" gradientUnits="userSpaceOnUse" gradientTransform="matrix(-225.292,-4.60836,4.32553,-211.465,443.001,276.297)"><stop offset="0" style="stop-color:#ffb6b6;stop-opacity:0"/><stop offset="0.6" style="stop-color:#ffc3c3;stop-opacity:0.180392"/><stop offset="0.81" style="stop-color:#ffe1e1;stop-opacity:0.588235"/><stop offset="1" style="stop-color:#fff;stop-opacity:1"/></radialGradient>
        <radialGradient id="_Radial14" cx="0" cy="0" r="1" gradientUnits="userSpaceOnUse" gradientTransform="matrix(-225.334,-1.5661,1.60967,-231.602,442.892,244.713)"><stop offset="0" style="stop-color:#00ff18;stop-opacity:0"/><stop offset="0.55" style="stop-color:#00cb60;stop-opacity:0.705882"/><stop offset="1" style="stop-color:#00b67e;stop-opacity:1"/></radialGradient>
        <radialGradient id="_Radial15" cx="0" cy="0" r="1" gradientUnits="userSpaceOnUse" gradientTransform="matrix(-188.599,-0.238186,0.273574,-216.62,443.001,276.297)"><stop offset="0" style="stop-color:#00e49c;stop-opacity:0"/><stop offset="0.6" style="stop-color:#00c888;stop-opacity:0.172549"/><stop offset="0.81" style="stop-color:#008859;stop-opacity:0.576471"/><stop offset="1" style="stop-color:#004528;stop-opacity:1"/></radialGradient>
        <radialGradient id="_Radial16" cx="0" cy="0" r="1" gradientUnits="userSpaceOnUse" gradientTransform="matrix(-225.292,-4.60836,4.32553,-211.465,443.001,276.297)"><stop offset="0" style="stop-color:#00ff98;stop-opacity:0"/><stop offset="0.6" style="stop-color:#25ffa5;stop-opacity:0.180392"/><stop offset="0.81" style="stop-color:#78ffc2;stop-opacity:0.588235"/><stop offset="1" style="stop-color:#ccffdf;stop-opacity:1"/></radialGradient>
    </defs>
</svg>
